<svg version="1.2" xmlns="http://www.w3.org/2000/svg" viewBox="0 0 98 74" width="98" height="74"><style>.a{fill:#edeeef}.b{fill:#807f84}.c{fill:#f7b560}.d{fill:#504e53}</style><path class="a" d="m10.6 60.8v-50.4c0-2.7 2.1-4.8 4.8-4.8h66.6c2.6 0 4.7 2.1 4.7 4.8v50.4z"/><path class="b" d="m58.6 56.1v2.3c0 1.4-1.1 2.4-2.4 2.4h-15c-1.3 0-2.4-1-2.4-2.4v-2.3h-33.7v5.7c0 3.9 3.1 7.1 7.1 7.1h73c4 0 7.1-3.2 7.1-7.1v-5.7z"/><path class="c" d="m30.3 12.2h14.1c-1.1-1.1-1.7-2.6-1.7-4.2 0-3.3 2.7-6.1 6.1-6.1 3.3 0 6 2.8 6 6.1 0 1.7-0.6 3.1-1.7 4.2h14.1v14.1c1.1-1.1 2.6-1.7 4.2-1.7 3.4 0 6.1 2.7 6.1 6.1 0 3.3-2.9 5.9-6.2 5.9-1.7 0-3.1-0.6-4.2-1.6v14h-14c1-1.1 1.6-2.6 1.6-4.2 0-3.4-2.7-6.1-6-6.1-3.4 0-6.1 2.7-6.1 6.1 0 1.7 0.6 3.1 1.7 4.2h-14.1v-14c-1.1 1-2.6 1.6-4.2 1.6-3.4 0-6.1-2.7-6.1-6 0-3.4 2.7-6.1 6.1-6.1 1.7 0 3.1 0.6 4.2 1.7 0.1 0.1 0.1-14 0.1-14z"/><path fill-rule="evenodd" class="d" d="m93.7 56.1v5.7c0 4.7-3.9 8.5-8.6 8.5h-72.9c-4.7 0-8.5-3.8-8.5-8.5v-5.7c0-0.7 0.6-1.4 1.4-1.4h4.1v-44.3c0-3.5 2.8-6.2 6.2-6.2h27.7v2.8h-27.7c-1.9 0-3.4 1.5-3.4 3.4v44.3h26.8c0.8 0 1.4 0.7 1.4 1.4v2.3c0 0.5 0.4 1 1 1h15c0.5 0 1-0.4 1-1v-2.3c0-0.7 0.6-1.4 1.4-1.4h26.8v-44.3c0-1.9-1.5-3.4-3.3-3.4h-27.8v-2.8h27.6c3.4 0 6.1 2.8 6.1 6.2v44.3h4.3c0.8 0 1.4 0.6 1.4 1.4zm-2.9 5.7v-4.3h-30.9v0.9c0 2.1-1.7 3.8-3.8 3.8h-15c-2.1 0-3.8-1.7-3.8-3.8v-0.9h-30.8v4.3c0 3.2 2.5 5.7 5.7 5.7h72.9c3.2 0 5.8-2.5 5.8-5.7z"/><path fill-rule="evenodd" class="d" d="m67.1 50.4h-14c-0.6 0-1.1-0.4-1.4-0.8-0.1-0.6 0-1.2 0.3-1.5 0.9-0.9 1.3-2.1 1.3-3.3 0-2.5-2-4.7-4.6-4.7-2.7 0-4.7 2.1-4.7 4.7 0 1.2 0.4 2.3 1.3 3.3 0.4 0.3 0.5 1 0.3 1.5-0.2 0.4-0.8 0.8-1.3 0.8h-14c-0.7 0-1.4-0.7-1.4-1.4v-11.5c-0.8 0.4-1.9 0.6-2.8 0.6-4.1 0-7.5-3.4-7.5-7.5 0-4.2 3.4-7.5 7.5-7.5 0.9 0 2 0.2 2.8 0.5v-11.4c0-0.7 0.7-1.4 1.4-1.4h11.5c-0.3-0.8-0.5-1.8-0.5-2.8 0-4.1 3.3-7.5 7.5-7.5 4.1 0 7.4 3.4 7.4 7.5 0 1-0.2 2-0.5 2.8h11.5c0.7 0 1.4 0.7 1.4 1.4v11.5c0.8-0.3 1.9-0.5 2.8-0.5 4.1 0 7.5 3.3 7.5 7.5 0 4.1-3.4 7.4-7.5 7.4-0.9 0-2-0.1-2.8-0.5v11.5c-0.1 0.6-0.8 1.3-1.5 1.3zm-11.5-2.8h10.1v-12.6c0-0.6 0.4-1.1 0.8-1.3 0.6-0.2 1.1-0.1 1.5 0.2 0.9 0.9 2.1 1.3 3.3 1.3 2.5 0 4.7-2 4.7-4.6 0-2.6-2.1-4.7-4.7-4.7-1.2 0-2.3 0.5-3.3 1.3-0.4 0.4-1 0.5-1.5 0.3-0.5-0.2-0.8-0.8-0.8-1.3v-12.6h-12.7c-0.6 0-1.1-0.3-1.3-0.8-0.2-0.6-0.1-1.1 0.2-1.5 0.9-0.8 1.3-2.1 1.3-3.3 0-2.5-2-4.7-4.6-4.7-2.7 0-4.7 2.1-4.7 4.7 0 1.2 0.5 2.4 1.3 3.3 0.4 0.4 0.5 1 0.3 1.5-0.2 0.6-0.8 0.8-1.3 0.8h-12.5v12.7c0 0.5-0.3 1-0.8 1.3-0.6 0.2-1.1 0.1-1.5-0.3-0.9-0.9-2.1-1.3-3.3-1.3-2.5 0-4.7 2-4.7 4.7 0 2.5 2.1 4.6 4.7 4.6 1.2 0 2.3-0.4 3.3-1.3 0.4-0.3 1-0.4 1.5-0.3 0.5 0.2 0.8 0.8 0.8 1.4v12.6h10.1c-0.3-0.9-0.5-1.9-0.5-2.8 0-4.1 3.3-7.5 7.5-7.5 4.1 0 7.4 3.4 7.4 7.5-0.1 0.8-0.2 1.8-0.6 2.7z"/></svg>