<?xml version="1.0" standalone="no"?>
<!DOCTYPE svg PUBLIC "-//W3C//DTD SVG 20010904//EN"
 "http://www.w3.org/TR/2001/REC-SVG-20010904/DTD/svg10.dtd">
<svg version="1.0" xmlns="http://www.w3.org/2000/svg"
 width="467.000000pt" height="467.000000pt" viewBox="0 0 467.000000 467.000000"
 preserveAspectRatio="xMidYMid meet">
<metadata>
Created by potrace 1.14, written by Peter Selinger 2001-2017
</metadata>
<g transform="translate(0.000000,467.000000) scale(0.100000,-0.100000)"
fill="#000000" stroke="none">
<path d="M2239 4100 c-85 -26 -154 -75 -207 -147 l-17 -23 -715 -1 c-777 -1
-763 0 -845 -57 -55 -39 -109 -113 -124 -173 -10 -39 -13 -295 -13 -1203 l0
-1152 -121 -1 c-130 -2 -141 -6 -155 -58 -15 -53 -6 -366 11 -426 43 -146 165
-262 317 -301 78 -21 3880 -19 3950 1 122 36 224 120 278 231 40 83 48 136 47
344 -1 166 -1 169 -26 190 -22 19 -35 21 -142 20 -64 -1 -117 1 -118 5 -1 3
-2 530 -3 1171 l-1 1165 -27 57 c-31 67 -90 127 -156 160 l-47 23 -726 5 -725
5 -35 40 c-19 22 -43 48 -54 57 -22 19 -106 62 -143 73 -49 14 -149 12 -203
-5z"/>
</g>
</svg>
